# xmcd CD database file
# Copyright (C) 1993-1998 Ti Kan
# 
# Track frame offsets:
#     183
#     11905
#     24450
#     35130
#     48130
#     61508
#     70078
#     89090
#     98318
#     109368
#     122790
#     137200
#     147085
#     162345
#     178465
#     202378
#     218850
#     238408
# 
# Disc length: 4308 seconds
# 
# Revision: 1
# Processed by: cddbd v1.4b41PL1 Copyright (c) Steve Scherf et al.
# Submitted via: DiscPlay 4.0.4
# 
DISCID=1310d212
DTITLE=Nina Simone - My sweet Lord
DYEAR=1900
DGENRE=
TTITLE0=Day and night
TTITLE1=Do I move you
TTITLE2=Real real
TTITLE3=Since I feel you
TTITLE4=In the dark
TTITLE5=Buck
TTITLE6=Consummation
TTITLE7=Turning point
TTITLE8=Turn me on
TTITLE9=It be's that way sometime
TTITLE10=I wish I knew how it would feel to be free
TTITLE11=Someday
TTITLE12=Cherrish
TTITLE13=Let it be me
TTITLE14=Funkier than a mosquito's tweeter
TTITLE15=Turn turn turn
TTITLE16=Suzanne
TTITLE17=My sweet lord/Today is a killer
EXTD=
EXTT0=
EXTT1=
EXTT2=
EXTT3=
EXTT4=
EXTT5=
EXTT6=
EXTT7=
EXTT8=
EXTT9=
EXTT10=
EXTT11=
EXTT12=
EXTT13=
EXTT14=
EXTT15=
EXTT16=
EXTT17=
PLAYORDER=
